<?xml version="1.0" standalone="no"?>
<!DOCTYPE svg PUBLIC "-//W3C//DTD SVG 20010904//EN"
 "http://www.w3.org/TR/2001/REC-SVG-20010904/DTD/svg10.dtd">
<svg version="1.0" xmlns="http://www.w3.org/2000/svg"
 width="1024.000000pt" height="662.000000pt" viewBox="0 0 1024.000000 662.000000"
 preserveAspectRatio="xMidYMid meet">

<g transform="translate(0.000000,662.000000) scale(0.100000,-0.100000)"
fill="#000000" stroke="none">
<path d="M0 3310 l0 -3310 5120 0 5120 0 0 3310 0 3310 -5120 0 -5120 0 0
-3310z m5471 1750 c243 -50 480 -169 652 -330 l75 -70 151 0 c147 0 153 -1
176 -24 27 -27 42 -73 29 -86 -5 -5 -64 -12 -132 -16 -67 -4 -122 -9 -122 -11
0 -2 18 -31 40 -63 22 -33 54 -94 71 -137 17 -43 39 -98 49 -123 32 -82 45
-188 45 -380 0 -191 -7 -240 -54 -385 -50 -157 -128 -306 -219 -417 -115 -143
-299 -296 -442 -368 -75 -38 -275 -105 -369 -125 -416 -85 -886 82 -1207 428
-108 116 -210 295 -267 467 -48 144 -62 235 -62 390 1 130 4 159 34 280 21 84
49 165 74 215 70 141 85 153 150 118 18 -9 35 -16 39 -15 12 3 -9 -53 -56
-146 -26 -51 -59 -137 -74 -190 -25 -89 -27 -111 -26 -267 1 -184 10 -232 84
-423 84 -219 277 -438 498 -569 117 -69 183 -96 330 -134 113 -30 122 -31 277
-25 187 6 283 25 429 85 231 95 391 225 550 447 57 80 122 229 152 349 26 99
28 127 28 275 1 182 -14 262 -74 420 -36 92 -136 251 -175 276 -20 13 -60 20
-149 25 -186 12 -199 15 -261 62 l-57 42 38 17 c22 9 68 20 104 23 36 4 80 11
99 17 l33 10 -28 24 c-50 41 -258 142 -335 164 -195 53 -435 64 -628 30 -62
-11 -129 -27 -149 -35 -60 -26 -166 -118 -186 -164 -11 -22 -24 -41 -30 -41
-6 -1 3 -9 20 -18 66 -37 77 -48 65 -71 -37 -69 -192 -84 -566 -56 l-243 19
-6 29 c-3 16 -6 42 -6 58 0 28 2 29 48 29 26 0 64 3 84 6 36 6 37 7 21 30 -10
16 -16 51 -17 113 -1 74 2 92 18 110 27 30 59 33 266 24 l185 -8 14 -62 14
-61 85 64 c98 75 147 101 258 138 132 43 207 54 387 55 133 1 190 -3 268 -19z
m-76 -396 c49 -8 113 -24 142 -34 137 -48 337 -229 400 -360 73 -154 122 -294
134 -386 11 -81 10 -103 -10 -224 -26 -152 -63 -263 -122 -362 -104 -176 -306
-328 -512 -385 -87 -24 -334 -24 -433 -1 -253 61 -474 232 -583 450 -28 57
-63 144 -78 193 -23 79 -27 108 -27 235 -1 159 6 200 60 338 104 263 351 475
629 537 83 19 291 18 400 -1z m-2461 -825 c45 -53 27 -121 -35 -134 -26 -6
-36 -2 -65 26 -19 18 -34 43 -34 55 0 35 47 84 80 84 19 0 36 -10 54 -31z
m218 16 c-2 -5 -16 -9 -33 -7 -39 3 -39 -23 1 -37 33 -11 38 -32 18 -76 -9
-19 -19 -25 -44 -25 -20 0 -34 6 -38 16 -11 28 -7 35 13 24 11 -5 27 -10 35
-10 28 0 17 21 -19 36 -29 12 -35 20 -35 44 0 17 7 33 18 39 21 13 88 10 84
-4z m230 -12 c55 -53 23 -133 -53 -133 -51 0 -83 39 -76 93 7 51 23 67 65 67
25 0 44 -8 64 -27z m3709 17 c10 -6 19 -17 19 -25 0 -12 -10 -13 -45 -8 -29 4
-45 2 -45 -5 0 -6 19 -12 43 -14 38 -3 42 -6 45 -31 6 -53 -48 -84 -99 -57
-29 16 -25 44 5 36 26 -6 56 1 56 14 0 5 -12 10 -26 12 -15 2 -33 13 -41 25
-13 19 -12 24 6 42 23 23 52 27 82 11z m163 -33 c9 -39 46 -34 59 8 13 39 16
42 27 25 15 -23 13 -160 -2 -160 -26 0 -40 17 -33 39 3 12 2 21 -4 21 -5 0
-16 3 -25 6 -13 5 -16 -1 -16 -31 0 -29 -3 -36 -17 -33 -15 3 -19 16 -21 65
-2 36 2 72 9 85 7 13 13 18 15 13 1 -6 5 -23 8 -38z m307 14 c36 -37 38 -79 5
-110 -51 -48 -126 -18 -126 51 0 33 47 88 75 88 9 0 30 -13 46 -29z m-366
-1495 c85 -36 87 -162 3 -244 -71 -71 -122 -48 -57 25 36 42 34 63 -8 83 -30
14 -33 19 -33 63 0 84 23 103 95 73z m-2377 -54 c22 -32 91 -164 155 -293 94
-191 124 -244 166 -287 28 -29 51 -57 51 -63 0 -5 -63 -9 -150 -9 -165 0 -171
2 -153 57 7 20 17 29 36 31 32 4 37 38 10 71 -16 18 -30 20 -157 22 l-140 2
-25 -33 c-23 -30 -24 -33 -8 -45 12 -8 17 -26 17 -56 l0 -44 -110 0 c-60 0
-110 3 -110 6 0 3 16 26 35 50 19 24 35 47 35 51 0 4 21 51 46 105 26 54 62
132 81 173 18 40 44 88 57 105 13 17 38 66 56 110 34 83 47 105 60 105 5 0 26
-26 48 -58z m3104 16 c60 -17 108 -35 108 -40 0 -5 -11 -25 -23 -46 -13 -20
-30 -54 -36 -75 l-13 -38 -16 33 c-20 39 -108 88 -159 88 -52 0 -112 -28 -119
-57 -12 -48 21 -74 155 -119 175 -59 212 -91 219 -192 6 -79 -21 -139 -79
-181 -53 -39 -101 -52 -188 -52 -69 0 -163 29 -222 69 l-25 17 14 78 15 78 30
-36 c32 -39 103 -80 158 -90 49 -9 114 10 138 42 47 59 13 99 -111 132 -47 12
-107 35 -132 51 -86 55 -131 149 -107 223 26 77 139 146 241 147 25 0 93 -14
152 -32z m-4997 1 c74 -27 165 -112 202 -187 24 -50 28 -69 28 -147 0 -109
-21 -160 -99 -239 -72 -73 -129 -98 -241 -103 -75 -4 -99 -2 -145 16 -88 33
-164 100 -202 179 -30 61 -33 74 -33 162 0 85 4 102 31 161 26 55 40 71 90
104 32 22 82 47 109 57 72 25 189 24 260 -3z m1295 -9 c0 -23 -5 -31 -25 -36
-20 -5 -36 -29 -79 -118 -30 -61 -57 -122 -61 -136 -4 -14 -13 -35 -21 -47 -8
-12 -25 -50 -38 -85 -31 -81 -94 -216 -104 -222 -4 -2 -23 -7 -43 -11 l-35 -7
-42 89 c-122 262 -194 413 -216 453 -28 52 -62 86 -91 92 -12 2 -21 13 -23 26
l-3 22 165 0 166 0 0 -30 c0 -26 -3 -30 -29 -30 -38 0 -61 -9 -61 -25 0 -7 20
-55 44 -106 24 -52 67 -143 94 -203 l50 -109 11 40 c11 39 98 225 147 313 34
61 29 84 -18 88 -35 3 -38 6 -38 32 l0 29 118 4 c64 1 120 4 125 5 4 1 7 -11
7 -28z m1488 -4 c3 -20 -1 -26 -16 -26 -11 0 -23 -7 -26 -16 -3 -9 -6 -126 -6
-261 0 -219 2 -245 16 -239 9 3 64 6 124 6 l108 0 47 48 47 47 -6 -70 c-3 -38
-6 -89 -6 -112 l0 -41 -257 5 c-142 3 -259 7 -261 8 -2 2 0 20 4 40 4 25 13
39 26 42 17 5 18 18 16 267 l-3 261 -30 5 c-25 4 -31 10 -33 35 l-3 30 128 -2
128 -2 3 -25z m1148 -55 c-3 -47 -12 -88 -18 -92 -19 -12 -37 1 -40 29 -3 24
-9 28 -48 34 -25 3 -89 7 -142 7 l-98 1 0 -95 0 -95 89 0 c82 0 92 2 121 26
17 15 34 23 38 20 4 -4 8 -41 11 -83 l3 -76 -131 7 -131 7 0 -92 0 -92 133 6
c108 6 134 10 142 24 18 29 45 53 60 53 12 0 15 -17 15 -96 l0 -95 -272 2
c-150 1 -276 3 -280 5 -15 9 16 65 43 80 l29 15 0 240 c0 239 -5 279 -35 279
-18 0 -47 29 -42 44 3 10 241 20 501 21 l59 1 -7 -85z m-3080 -836 c5 -31 12
-56 17 -55 4 0 25 0 47 0 l40 0 0 55 c0 48 3 55 19 55 11 0 22 -4 25 -8 9 -16
19 -262 10 -262 -5 0 -19 -3 -31 -6 -22 -6 -23 -4 -23 50 l0 56 -56 0 -55 0 2
-52 c3 -48 1 -53 -19 -56 -22 -3 -22 -2 -22 137 0 132 1 141 19 141 15 0 20
-11 27 -55z m852 18 c-3 -37 -4 -38 -40 -35 l-38 3 0 -101 0 -101 -27 3 -28 3
4 96 3 96 -32 0 c-33 0 -50 15 -50 45 0 15 13 18 88 21 48 1 95 4 105 5 15 2
18 -4 15 -35z m2210 5 c9 -17 29 -45 43 -61 l25 -30 23 62 c24 62 28 65 69 55
22 -6 22 -7 -23 -89 -35 -64 -45 -93 -45 -129 0 -42 -2 -46 -25 -46 -23 0 -25
4 -25 42 0 28 -8 51 -24 73 -24 31 -86 132 -86 140 0 3 24 11 43 14 4 0 16
-13 25 -31z m-3259 -5 c48 -44 50 -76 8 -118 -29 -29 -42 -35 -76 -35 l-41 0
0 -40 c0 -38 -2 -40 -29 -40 l-30 0 -3 130 -3 130 72 0 c65 0 76 -3 102 -27z
m671 12 c46 -24 70 -66 70 -123 0 -45 -4 -53 -40 -86 -63 -57 -138 -44 -195
33 -30 42 -32 75 -5 119 39 64 110 88 170 57z m677 -17 c34 -31 53 -71 53
-109 0 -24 -10 -42 -44 -75 -36 -37 -50 -44 -82 -44 -72 0 -135 57 -137 125
-1 40 24 79 74 113 42 29 99 25 136 -10z m357 22 c31 -11 35 -45 7 -60 -14 -7
-31 -6 -59 4 -38 14 -41 13 -61 -8 -47 -50 -6 -131 63 -124 38 4 49 35 14 40
-12 2 -24 11 -26 21 -3 14 5 17 53 17 l56 0 -6 -47 c-10 -71 -9 -70 -68 -84
-51 -11 -58 -10 -91 10 -100 62 -101 162 -2 222 34 21 81 24 120 9z m341 -20
c13 -14 27 -39 31 -56 5 -26 1 -36 -26 -61 -32 -30 -32 -31 -15 -57 10 -14 21
-26 25 -26 4 0 10 -7 14 -15 4 -11 -2 -15 -27 -15 -27 0 -35 6 -52 37 -28 53
-51 55 -60 4 -5 -29 -12 -41 -23 -41 -35 0 -38 13 -34 139 l4 123 69 -4 c57
-3 73 -8 94 -28z m335 -85 c57 -127 60 -145 26 -145 -17 0 -26 7 -30 26 -5 18
-12 24 -22 20 -9 -3 -33 -6 -55 -6 -32 0 -39 -3 -39 -20 0 -16 -7 -20 -35 -20
-22 0 -35 5 -35 13 0 7 17 49 39 93 21 44 42 91 46 105 24 78 47 63 105 -66z
m341 77 c56 -62 23 -125 -71 -138 l-52 -7 5 -38 c5 -38 4 -39 -25 -39 -29 0
-30 2 -24 31 3 17 6 75 6 129 l0 98 66 -2 c61 -2 69 -5 95 -34z m201 -14 l3
-53 53 -3 52 -3 0 55 c0 52 2 56 24 56 31 0 36 -15 36 -108 0 -120 -8 -152
-36 -152 -22 0 -24 4 -24 53 l0 52 -53 -3 -54 -4 8 -46 c7 -49 -1 -65 -31 -59
-12 2 -16 26 -18 135 -2 126 -2 132 17 132 17 0 20 -8 23 -52z m-3559 -48
l247 0 0 -30 0 -30 -290 0 -290 0 0 28 c0 38 9 45 50 38 19 -3 146 -6 283 -6z
m4875 -6 c16 -5 22 -14 22 -35 l0 -29 -288 0 -288 0 4 35 4 35 262 0 c143 0
271 -3 284 -6z"/>
<path d="M4075 4775 c-11 -95 -17 -91 163 -100 162 -7 252 -1 252 17 0 6 -5
28 -11 49 -10 31 -19 41 -52 54 -47 19 -172 35 -273 35 l-72 0 -7 -55z"/>
<path d="M5078 4539 c-158 -23 -300 -99 -429 -230 -63 -63 -88 -97 -124 -172
-62 -128 -78 -211 -72 -362 10 -224 76 -391 210 -532 73 -78 129 -115 232
-156 119 -47 162 -56 270 -57 169 0 338 42 445 111 163 105 275 266 306 439
28 157 4 271 -85 396 -113 159 -301 296 -461 335 -121 29 -270 8 -407 -57 -89
-42 -174 -131 -229 -240 -38 -75 -39 -80 -38 -178 0 -56 5 -138 10 -183 6 -46
9 -83 7 -83 -1 0 -10 15 -19 33 -9 17 -33 52 -53 77 -59 73 -72 99 -78 153
-10 103 54 284 135 381 55 67 188 159 264 185 188 64 472 42 618 -48 25 -16
71 -43 102 -60 32 -18 103 -77 159 -130 71 -70 108 -98 125 -98 29 0 27 12
-18 102 -32 64 -48 86 -48 68 0 -7 -23 13 -51 42 -28 30 -77 69 -108 86 -31
18 -82 49 -114 71 -141 95 -350 136 -549 107z m32 -411 c27 -44 27 -156 1
-213 -19 -43 -78 -100 -118 -116 -56 -21 -115 -5 -160 43 -24 25 -35 114 -16
126 5 4 18 21 27 39 36 71 150 153 213 153 27 0 37 -6 53 -32z m538 -122 c68
-51 105 -104 138 -202 57 -172 15 -322 -135 -472 -137 -137 -260 -186 -471
-186 -139 0 -189 12 -323 82 -73 38 -119 84 -201 206 -54 80 -56 100 -6 104
32 3 41 -3 112 -82 64 -70 91 -91 152 -120 120 -56 176 -69 280 -64 150 9 273
59 365 148 101 99 136 195 129 349 -5 108 -24 160 -85 244 -41 55 -36 54 45
-7z"/>
<path d="M2851 3817 c-6 -6 -11 -21 -11 -34 0 -27 38 -40 69 -23 26 13 26 22
4 42 -26 22 -49 28 -62 15z"/>
<path d="M3294 3816 c-15 -40 21 -80 54 -60 9 6 19 19 21 29 6 35 -63 63 -75
31z"/>
<path d="M7474 3796 c-8 -33 2 -46 35 -46 26 0 51 15 51 31 0 16 -33 39 -56
39 -17 0 -25 -7 -30 -24z"/>
<path d="M4741 2098 c-5 -13 -22 -58 -39 -100 l-30 -78 94 0 c52 0 94 2 94 5
0 9 -73 171 -82 183 -15 18 -27 15 -37 -10z"/>
<path d="M2705 2206 c-35 -15 -102 -86 -115 -122 -6 -14 -10 -58 -10 -97 0
-166 109 -267 255 -237 207 43 250 325 68 441 -39 24 -57 29 -107 29 -34 -1
-74 -7 -91 -14z"/>
<path d="M3472 1363 c3 -36 5 -38 38 -38 28 0 36 4 38 21 4 28 -23 54 -54 54
-23 0 -25 -3 -22 -37z"/>
<path d="M4153 1380 c-59 -36 -52 -99 14 -126 31 -13 38 -13 59 1 48 31 50 91
6 125 -31 25 -39 25 -79 0z"/>
<path d="M4792 1367 c-27 -29 -28 -57 -2 -90 28 -35 53 -41 89 -22 43 22 56
49 40 86 -22 54 -89 67 -127 26z"/>
<path d="M5510 1366 c0 -42 16 -52 57 -39 28 10 42 38 26 53 -4 5 -25 12 -45
15 l-38 7 0 -36z"/>
<path d="M5876 1330 c-16 -38 -9 -45 33 -38 19 3 19 4 1 38 l-18 35 -16 -35z"/>
<path d="M6190 1368 c0 -37 15 -52 45 -44 21 5 26 12 23 34 -2 22 -9 28 -35
30 -29 3 -33 0 -33 -20z"/>
</g>
</svg>
