<svg xmlns="http://www.w3.org/2000/svg" width="324" height="297" viewBox="0 0 324 297" version="1.1"><path d="M 136 25.507 C 127.215 27.290, 113.546 31.705, 107.768 34.624 C 105.166 35.939, 99.222 39.925, 94.561 43.482 C 89.900 47.038, 85.886 49.622, 85.640 49.224 C 85.395 48.826, 84.877 46.377, 84.489 43.782 C 84.100 41.187, 83.269 38.661, 82.641 38.169 C 82.014 37.676, 72.819 36.984, 62.208 36.632 C 41.924 35.959, 38.160 36.534, 36.621 40.545 C 35.313 43.954, 35.959 59.497, 37.501 61.698 C 38.914 63.716, 38.841 63.876, 36.247 64.446 C 34.731 64.779, 30.853 65.120, 27.629 65.205 L 21.767 65.359 22.416 70.879 C 22.772 73.914, 23.217 76.551, 23.405 76.738 C 24.568 77.902, 64.210 80.105, 79 79.828 C 94.342 79.540, 96.917 79.253, 99.885 77.500 C 101.747 76.400, 103.906 74.537, 104.684 73.360 C 106.012 71.350, 105.823 71.047, 101.585 68.360 C 99.104 66.787, 97.059 65.050, 97.042 64.500 C 96.914 60.423, 109.057 48.099, 116.843 44.404 C 124.838 40.610, 138.774 38.569, 156.500 38.594 C 175.098 38.620, 186.899 40.259, 199.966 44.633 C 210.834 48.269, 231 59.520, 231 61.947 C 231 62.885, 221.718 65, 217.602 65 C 214.092 65, 205 67.773, 205 68.844 C 205 69.962, 211.872 75.048, 215.342 76.498 C 217.155 77.256, 225.355 78.399, 233.564 79.039 C 241.863 79.685, 249.654 80.804, 251.115 81.559 C 254.250 83.181, 264.535 98.900, 268.370 107.933 C 278.574 131.965, 279.696 161.572, 271.385 187.500 C 267.489 199.657, 260.868 211.547, 251.447 223.307 C 237.859 240.268, 221.932 251.972, 201.686 259.874 C 185.843 266.058, 177.394 267.500, 157 267.500 C 140.828 267.500, 138.741 267.286, 129.500 264.677 C 108.809 258.837, 90.178 247.978, 75.271 233.071 C 60.539 218.339, 52.838 205.733, 45.977 185.121 C 36.813 157.589, 38.285 132.805, 50.605 107.190 C 57.698 92.442, 57.716 92.139, 51.628 89.578 L 46.757 87.529 44.022 90.804 C 38.835 97.018, 33.301 110.011, 29.884 124 C 26.900 136.217, 26.587 138.925, 26.589 152.500 C 26.591 165.499, 26.955 168.960, 29.323 178.446 C 35.857 204.618, 47.053 225.239, 63.638 241.647 C 74.870 252.759, 81.699 258.048, 93.500 264.776 C 120.138 279.962, 147.873 285.645, 175.227 281.522 C 186.420 279.835, 209.607 272.491, 218.733 267.743 C 234.726 259.422, 252.700 244.029, 264.325 228.700 C 276.051 213.236, 285.795 189.980, 289.040 169.709 C 290.603 159.945, 289.732 130.375, 287.596 120.734 C 285.536 111.430, 277.236 92.111, 272.082 84.620 C 268.324 79.158, 268.602 79, 282 79 C 287.410 79, 292.548 78.727, 293.418 78.393 C 296.853 77.075, 294.045 69.253, 289.373 67.124 C 287.459 66.252, 282.297 65.939, 272.772 66.119 L 258.948 66.380 253.724 61.304 C 244.350 52.196, 233.736 44.889, 220.500 38.430 C 197.273 27.096, 183.744 23.951, 158.843 24.094 C 149.666 24.147, 139.650 24.766, 136 25.507 M 46.750 49.554 C 46.337 49.983, 46 53.362, 46 57.064 L 46 63.795 59.250 64.477 C 66.537 64.852, 75.650 65.010, 79.500 64.829 L 86.500 64.500 86.378 60.655 C 86.218 55.639, 83.894 53.449, 76.777 51.606 C 70.231 49.910, 47.877 48.383, 46.750 49.554 M 141.164 65.121 C 113.590 69.706, 85.450 92.873, 75.114 119.500 C 69.456 134.076, 68.534 138.856, 68.557 153.500 C 68.573 164.102, 69.016 168.068, 70.957 175 C 75.567 191.461, 82.495 204.866, 91.672 215.084 C 101.223 225.716, 120.456 237.104, 135.554 241.067 C 147.074 244.091, 166.060 244.775, 177.032 242.561 C 199.293 238.070, 221.544 222.424, 232.895 203.281 C 243.507 185.382, 248.941 158.649, 245.592 140.820 C 243.997 132.329, 237.758 115.407, 232.063 104.126 C 227.075 94.245, 209.555 77.430, 198.122 71.553 C 186.393 65.523, 158.016 62.319, 141.164 65.121 M 142.113 79.479 C 127.063 82.898, 116.734 88.564, 105.450 99.589 C 97.690 107.171, 94.933 110.892, 90.637 119.585 C 85.179 130.630, 83.675 137.665, 83.709 152 C 83.767 176.366, 91.532 195.729, 107.589 211.551 C 113.945 217.814, 118.718 220.604, 132.500 226.113 C 139.163 228.777, 142.239 229.392, 150.905 229.794 C 169.438 230.653, 188.282 226.496, 199.904 218.984 C 218.526 206.948, 229.407 189.297, 231.591 167.580 C 233.281 150.768, 224.423 133.353, 206.625 118.500 C 192.507 106.717, 176.852 100, 163.510 100 C 155.683 100, 143.866 102.957, 135.353 107.045 C 125.541 111.757, 118.153 119.298, 112.573 130.293 C 107.721 139.857, 106.732 147.087, 108.543 159.756 C 109.310 165.115, 109.924 170.850, 109.909 172.500 C 109.885 175.223, 109.773 175.324, 108.691 173.596 C 108.036 172.549, 105.424 168.933, 102.887 165.560 C 95.883 156.252, 94.702 153.423, 94.731 146.015 C 94.761 138.225, 98.733 125.417, 103.428 117.970 C 110.070 107.436, 122.402 97.238, 133.537 93.072 C 147.235 87.947, 171.351 87.639, 185.412 92.410 C 189.764 93.887, 194.489 95.896, 195.912 96.875 C 197.335 97.855, 201.650 100.392, 205.500 102.514 C 210.011 105, 216.089 109.863, 222.594 116.189 C 232.583 125.904, 232.709 125.987, 234.796 124.177 L 236.905 122.348 233.797 116.226 C 232.088 112.859, 230.403 110.193, 230.053 110.302 C 229.703 110.411, 226.961 108.019, 223.959 104.986 C 219.045 100.022, 215.045 97.334, 196.073 86.242 C 186.247 80.498, 179.214 78.832, 163 78.408 C 152.715 78.139, 146.644 78.450, 142.113 79.479 M 135 119.792 C 127.139 124.809, 119.649 134.791, 119.461 140.500 C 119.285 145.839, 120.993 148.912, 125.655 151.644 C 131.072 154.818, 136.154 154.488, 142.063 150.577 C 148.594 146.255, 151.272 141.163, 151.730 132.196 C 152.038 126.160, 151.732 123.745, 150.312 121 C 148.698 117.882, 148.009 117.468, 144 117.210 C 140.441 116.980, 138.559 117.520, 135 119.792 M 200.433 133.353 C 206.403 141.720, 208.379 149.296, 207.762 161.455 C 207.064 175.203, 204.582 180.670, 194.576 190.500 C 187.503 197.449, 185.452 198.855, 178.966 201.200 C 159.774 208.140, 148.027 207.723, 130.669 199.484 C 124.489 196.551, 121.650 194.360, 115.632 187.883 C 110.247 182.086, 107.193 179.616, 104.487 178.869 C 97.050 176.815, 97.698 180.615, 106.978 193.469 C 114.423 203.782, 119.030 207.958, 127.340 211.924 C 146.272 220.959, 168.229 221.207, 186.500 212.593 C 207.540 202.673, 223.094 178.696, 219.849 161.185 C 218.230 152.443, 214.834 143.970, 211.016 139.139 C 207.612 134.833, 198.288 127, 196.565 127 C 196.199 127, 197.939 129.859, 200.433 133.353" stroke="none" fill="#d5c4a5" fill-rule="evenodd"/><path d="M 0 148.503 L 0 297.006 162.250 296.753 L 324.500 296.500 324.753 148.250 L 325.007 -0 162.503 -0 L 0 0 0 148.503 M 0.487 149 C 0.487 230.675, 0.605 264.088, 0.750 223.250 C 0.895 182.413, 0.895 115.588, 0.750 74.750 C 0.605 33.913, 0.487 67.325, 0.487 149 M 136 25.507 C 127.215 27.290, 113.546 31.705, 107.768 34.624 C 105.166 35.939, 99.222 39.925, 94.561 43.482 C 89.900 47.038, 85.886 49.622, 85.640 49.224 C 85.395 48.826, 84.877 46.377, 84.489 43.782 C 84.100 41.187, 83.269 38.661, 82.641 38.169 C 82.014 37.676, 72.819 36.984, 62.208 36.632 C 41.924 35.959, 38.160 36.534, 36.621 40.545 C 35.313 43.954, 35.959 59.497, 37.501 61.698 C 38.914 63.716, 38.841 63.876, 36.247 64.446 C 34.731 64.779, 30.853 65.120, 27.629 65.205 L 21.767 65.359 22.416 70.879 C 22.772 73.914, 23.217 76.551, 23.405 76.738 C 24.568 77.902, 64.210 80.105, 79 79.828 C 94.342 79.540, 96.917 79.253, 99.885 77.500 C 101.747 76.400, 103.906 74.537, 104.684 73.360 C 106.012 71.350, 105.823 71.047, 101.585 68.360 C 99.104 66.787, 97.059 65.050, 97.042 64.500 C 96.914 60.423, 109.057 48.099, 116.843 44.404 C 124.838 40.610, 138.774 38.569, 156.500 38.594 C 175.098 38.620, 186.899 40.259, 199.966 44.633 C 210.834 48.269, 231 59.520, 231 61.947 C 231 62.885, 221.718 65, 217.602 65 C 214.092 65, 205 67.773, 205 68.844 C 205 69.962, 211.872 75.048, 215.342 76.498 C 217.155 77.256, 225.355 78.399, 233.564 79.039 C 241.863 79.685, 249.654 80.804, 251.115 81.559 C 254.250 83.181, 264.535 98.900, 268.370 107.933 C 278.574 131.965, 279.696 161.572, 271.385 187.500 C 267.489 199.657, 260.868 211.547, 251.447 223.307 C 237.859 240.268, 221.932 251.972, 201.686 259.874 C 185.843 266.058, 177.394 267.500, 157 267.500 C 140.828 267.500, 138.741 267.286, 129.500 264.677 C 108.809 258.837, 90.178 247.978, 75.271 233.071 C 60.539 218.339, 52.838 205.733, 45.977 185.121 C 36.813 157.589, 38.285 132.805, 50.605 107.190 C 57.698 92.442, 57.716 92.139, 51.628 89.578 L 46.757 87.529 44.022 90.804 C 38.835 97.018, 33.301 110.011, 29.884 124 C 26.900 136.217, 26.587 138.925, 26.589 152.500 C 26.591 165.499, 26.955 168.960, 29.323 178.446 C 35.857 204.618, 47.053 225.239, 63.638 241.647 C 74.870 252.759, 81.699 258.048, 93.500 264.776 C 120.138 279.962, 147.873 285.645, 175.227 281.522 C 186.420 279.835, 209.607 272.491, 218.733 267.743 C 234.726 259.422, 252.700 244.029, 264.325 228.700 C 276.051 213.236, 285.795 189.980, 289.040 169.709 C 290.603 159.945, 289.732 130.375, 287.596 120.734 C 285.536 111.430, 277.236 92.111, 272.082 84.620 C 268.324 79.158, 268.602 79, 282 79 C 287.410 79, 292.548 78.727, 293.418 78.393 C 296.853 77.075, 294.045 69.253, 289.373 67.124 C 287.459 66.252, 282.297 65.939, 272.772 66.119 L 258.948 66.380 253.724 61.304 C 244.350 52.196, 233.736 44.889, 220.500 38.430 C 197.273 27.096, 183.744 23.951, 158.843 24.094 C 149.666 24.147, 139.650 24.766, 136 25.507 M 46.750 49.554 C 46.337 49.983, 46 53.362, 46 57.064 L 46 63.795 59.250 64.477 C 66.537 64.852, 75.650 65.010, 79.500 64.829 L 86.500 64.500 86.378 60.655 C 86.218 55.639, 83.894 53.449, 76.777 51.606 C 70.231 49.910, 47.877 48.383, 46.750 49.554 M 141.164 65.121 C 113.590 69.706, 85.450 92.873, 75.114 119.500 C 69.456 134.076, 68.534 138.856, 68.557 153.500 C 68.573 164.102, 69.016 168.068, 70.957 175 C 75.567 191.461, 82.495 204.866, 91.672 215.084 C 101.223 225.716, 120.456 237.104, 135.554 241.067 C 147.074 244.091, 166.060 244.775, 177.032 242.561 C 199.293 238.070, 221.544 222.424, 232.895 203.281 C 243.507 185.382, 248.941 158.649, 245.592 140.820 C 243.997 132.329, 237.758 115.407, 232.063 104.126 C 227.075 94.245, 209.555 77.430, 198.122 71.553 C 186.393 65.523, 158.016 62.319, 141.164 65.121 M 142.113 79.479 C 127.063 82.898, 116.734 88.564, 105.450 99.589 C 97.690 107.171, 94.933 110.892, 90.637 119.585 C 85.179 130.630, 83.675 137.665, 83.709 152 C 83.767 176.366, 91.532 195.729, 107.589 211.551 C 113.945 217.814, 118.718 220.604, 132.500 226.113 C 139.163 228.777, 142.239 229.392, 150.905 229.794 C 169.438 230.653, 188.282 226.496, 199.904 218.984 C 218.526 206.948, 229.407 189.297, 231.591 167.580 C 233.281 150.768, 224.423 133.353, 206.625 118.500 C 192.507 106.717, 176.852 100, 163.510 100 C 155.683 100, 143.866 102.957, 135.353 107.045 C 125.541 111.757, 118.153 119.298, 112.573 130.293 C 107.721 139.857, 106.732 147.087, 108.543 159.756 C 109.310 165.115, 109.924 170.850, 109.909 172.500 C 109.885 175.223, 109.773 175.324, 108.691 173.596 C 108.036 172.549, 105.424 168.933, 102.887 165.560 C 95.883 156.252, 94.702 153.423, 94.731 146.015 C 94.761 138.225, 98.733 125.417, 103.428 117.970 C 110.070 107.436, 122.402 97.238, 133.537 93.072 C 147.235 87.947, 171.351 87.639, 185.412 92.410 C 189.764 93.887, 194.489 95.896, 195.912 96.875 C 197.335 97.855, 201.650 100.392, 205.500 102.514 C 210.011 105, 216.089 109.863, 222.594 116.189 C 232.583 125.904, 232.709 125.987, 234.796 124.177 L 236.905 122.348 233.797 116.226 C 232.088 112.859, 230.403 110.193, 230.053 110.302 C 229.703 110.411, 226.961 108.019, 223.959 104.986 C 219.045 100.022, 215.045 97.334, 196.073 86.242 C 186.247 80.498, 179.214 78.832, 163 78.408 C 152.715 78.139, 146.644 78.450, 142.113 79.479 M 135 119.792 C 127.139 124.809, 119.649 134.791, 119.461 140.500 C 119.285 145.839, 120.993 148.912, 125.655 151.644 C 131.072 154.818, 136.154 154.488, 142.063 150.577 C 148.594 146.255, 151.272 141.163, 151.730 132.196 C 152.038 126.160, 151.732 123.745, 150.312 121 C 148.698 117.882, 148.009 117.468, 144 117.210 C 140.441 116.980, 138.559 117.520, 135 119.792 M 200.433 133.353 C 206.403 141.720, 208.379 149.296, 207.762 161.455 C 207.064 175.203, 204.582 180.670, 194.576 190.500 C 187.503 197.449, 185.452 198.855, 178.966 201.200 C 159.774 208.140, 148.027 207.723, 130.669 199.484 C 124.489 196.551, 121.650 194.360, 115.632 187.883 C 110.247 182.086, 107.193 179.616, 104.487 178.869 C 97.050 176.815, 97.698 180.615, 106.978 193.469 C 114.423 203.782, 119.030 207.958, 127.340 211.924 C 146.272 220.959, 168.229 221.207, 186.500 212.593 C 207.540 202.673, 223.094 178.696, 219.849 161.185 C 218.230 152.443, 214.834 143.970, 211.016 139.139 C 207.612 134.833, 198.288 127, 196.565 127 C 196.199 127, 197.939 129.859, 200.433 133.353" stroke="none" fill="#2c2b29" fill-rule="evenodd"/></svg>